<svg xmlns="http://www.w3.org/2000/svg" width="760" height="326" viewBox="0 0 760 326" font-family="system-ui,-apple-system,'Segoe UI',sans-serif">
<style>
 .bg{fill:#fcfcfb;stroke:rgba(11,11,11,.10)} .t-pri{fill:#0b0b0b}.t-sec{fill:#52514e}
 .title{font-size:15px;font-weight:600}.sub{font-size:11px}.lbl{font-size:11px}.name{font-size:12px}.tot{font-size:11px;font-weight:600}
 .p0{fill:#2a78d6}.p1{fill:#1baf7a}.p2{fill:#eda100}.p3{fill:#008300}.p4{fill:#4a3aa7}.p5{fill:#e34948}
 @media (prefers-color-scheme:dark){
  .bg{fill:#1a1a19;stroke:rgba(255,255,255,.10)} .t-pri{fill:#fff}.t-sec{fill:#c3c2b7}
  .p0{fill:#3987e5}.p1{fill:#199e70}.p2{fill:#c98500}.p3{fill:#008300}.p4{fill:#9085e9}.p5{fill:#e66767}
 }
</style>
<rect class="bg" x="0.5" y="0.5" width="759" height="325" rx="12"/>
<text x="16" y="24" class="t-pri title">git install time by phase</text>
<text x="16" y="40" class="t-sec sub">offline install only (download excluded) · seconds · lower is faster</text>
<rect x="76" y="43" width="11" height="11" rx="2" class="p0"/><text x="92" y="52" class="t-sec lbl">startup</text><rect x="150.4" y="43" width="11" height="11" rx="2" class="p1"/><text x="166.4" y="52" class="t-sec lbl">resolve</text><rect x="224.8" y="43" width="11" height="11" rx="2" class="p2"/><text x="240.8" y="52" class="t-sec lbl">verify</text><rect x="292" y="43" width="11" height="11" rx="2" class="p3"/><text x="308" y="52" class="t-sec lbl">unpack</text><rect x="359.2" y="43" width="11" height="11" rx="2" class="p4"/><text x="375.2" y="52" class="t-sec lbl">configure</text><rect x="448" y="43" width="11" height="11" rx="2" class="p5"/><text x="464" y="52" class="t-sec lbl">link</text><text x="68" y="104" class="t-sec name" text-anchor="end">apk</text><rect x="76.0" y="86" width="6.3" height="26" rx="2" class="p3"><title>apk · unpack: 0.30s</title></rect><text x="90.4" y="104" class="t-pri tot">0.34s</text><text x="68" y="142" class="t-sec name" text-anchor="end">pacman</text><rect x="76.0" y="124" width="1.9" height="26" rx="2" class="p0"><title>pacman · startup: 0.14s</title></rect><rect x="79.9" y="124" width="5.8" height="26" rx="2" class="p1"><title>pacman · resolve: 0.28s</title></rect><rect x="87.7" y="124" width="1.0" height="26" rx="2" class="p2"><title>pacman · verify: 0.03s</title></rect><rect x="88.6" y="124" width="3.1" height="26" rx="2" class="p3"><title>pacman · unpack: 0.18s</title></rect><rect x="93.7" y="124" width="5.8" height="26" rx="2" class="p4"><title>pacman · configure: 0.28s</title></rect><text x="107.5" y="142" class="t-pri tot">0.99s</text><text x="68" y="180" class="t-sec name" text-anchor="end">dnf</text><rect x="76.0" y="162" width="1.0" height="26" rx="2" class="p0"><title>dnf · startup: 0.08s</title></rect><rect x="78.2" y="162" width="1.0" height="26" rx="2" class="p1"><title>dnf · resolve: 0.03s</title></rect><rect x="79.1" y="162" width="6.8" height="26" rx="2" class="p2"><title>dnf · verify: 0.32s</title></rect><rect x="87.9" y="162" width="19.8" height="26" rx="2" class="p3"><title>dnf · unpack: 0.79s</title></rect><rect x="109.8" y="162" width="1.4" height="26" rx="2" class="p4"><title>dnf · configure: 0.12s</title></rect><text x="119.2" y="180" class="t-pri tot">1.37s</text><text x="68" y="218" class="t-sec name" text-anchor="end">apt</text><rect x="76.0" y="200" width="15.5" height="26" rx="2" class="p0"><title>apt · startup: 0.63s</title></rect><rect x="93.5" y="200" width="1.7" height="26" rx="2" class="p1"><title>apt · resolve: 0.13s</title></rect><rect x="97.2" y="200" width="1.0" height="26" rx="2" class="p3"><title>apt · unpack: 0.07s</title></rect><rect x="99.2" y="200" width="71.3" height="26" rx="2" class="p4"><title>apt · configure: 2.64s</title></rect><text x="178.5" y="218" class="t-pri tot">3.53s</text><text x="68" y="256" class="t-sec name" text-anchor="end">nix</text><rect x="76.0" y="238" width="1.0" height="26" rx="2" class="p4"><title>nix · configure: 0.07s</title></rect><text x="84.0" y="256" class="t-pri tot">0.26s</text><text x="68" y="294" class="t-sec name" text-anchor="end">brew</text><rect x="76.0" y="276" width="7.1" height="26" rx="2" class="p1"><title>brew · resolve: 0.33s</title></rect><rect x="85.1" y="276" width="513.6" height="26" rx="2" class="p3"><title>brew · unpack: 18.56s</title></rect><rect x="600.6" y="276" width="100.5" height="26" rx="2" class="p4"><title>brew · configure: 3.69s</title></rect><text x="709.2" y="294" class="t-pri tot">22.60s</text>
</svg>